<?xml version="1.0" encoding="UTF-8" standalone="no"?>
<svg
   id="gauge"
   data-name="gauge"
   viewBox="0 0 442.41 344.42"
   version="1.1"
   sodipodi:docname="gaugeAlt.svg"
   inkscape:version="1.1.1 (3bf5ae0d25, 2021-09-20)"
   xmlns:inkscape="http://www.inkscape.org/namespaces/inkscape"
   xmlns:sodipodi="http://sodipodi.sourceforge.net/DTD/sodipodi-0.dtd"
   xmlns="http://www.w3.org/2000/svg"
   xmlns:svg="http://www.w3.org/2000/svg">
  <sodipodi:namedview
     id="namedview35"
     pagecolor="#ffffff"
     bordercolor="#666666"
     borderopacity="1.0"
     inkscape:pageshadow="2"
     inkscape:pageopacity="0.0"
     inkscape:pagecheckerboard="0"
     showgrid="false"
     inkscape:zoom="1.9641717"
     inkscape:cx="312.85453"
     inkscape:cy="86.29592"
     inkscape:window-width="3840"
     inkscape:window-height="1571"
     inkscape:window-x="-9"
     inkscape:window-y="-9"
     inkscape:window-maximized="1"
     inkscape:current-layer="gauge" />
  <defs
     id="defs25">
    <style
       id="style23">.cls-1{fill:#6ec37c;}.cls-2{fill:#f3a141;}.cls-3{fill:#e07f8b;}.cls-4{fill:#3e3a39;}</style>
  </defs>
  <path
     class="cls-1"
     d="M212.38,366.74a123.53,123.53,0,1,1,192,0l87.76,45.47A220.19,220.19,0,0,0,529.56,289c0-122.17-99-221.21-221.2-221.21S87.15,166.83,87.15,289a220.19,220.19,0,0,0,37.47,123.21Z"
     transform="translate(-87.15 -67.79)"
     id="path27" />
  <path
     class="cls-2"
     d="M480.75,150.41l-75.37,62.15a123.48,123.48,0,0,1-1.05,154.18l87.76,45.47a221.23,221.23,0,0,0-11.34-261.8Z"
     transform="translate(-87.15 -67.79)"
     id="path29" />
  <path
     class="cls-3"
     d="M430.69,306.11a122.88,122.88,0,0,1-26.36,60.63l87.76,45.47A219.91,219.91,0,0,0,527,322.74Z"
     transform="translate(-87.15 -67.79)"
     id="path31" />
  <path
     class="cls-4"
     id="pointer"
     d="m 79.488189,-22.299342 -9.62,161.700002 c 0,0.09 0,0.18 0,0.27 0,0.09 0,0 0,0.06 v 0.08 0 c 0.07,6.21 4.77,11.22 10.58,11.22 5.81,0 10.63,-5.08 10.63,-11.36 z" />
</svg>
